<svg width="224" height="313" viewBox="0 0 224 313" fill="none" xmlns="http://www.w3.org/2000/svg">
<path d="M6.10349 304.252C5.77174 304.669 5.24093 304.946 4.64377 304.946C4.04661 304.946 3.51584 304.738 3.11773 304.252C2.71963 303.766 2.58691 303.21 2.58691 302.586V284.672C2.58691 283.145 3.25041 282.381 4.64377 282.381H9.95185C12.4068 282.381 14.3973 283.006 15.7907 284.186C17.1841 285.366 17.9139 287.241 17.9139 289.671C17.9139 291.338 17.5821 292.796 16.9186 293.907C16.2551 295.017 15.3263 295.851 14.2647 296.337L16.9186 300.989C17.3167 301.683 17.5158 302.308 17.5158 302.863C17.5158 303.419 17.3168 303.905 16.8523 304.321C16.3879 304.669 15.9234 304.877 15.3262 304.877C14.9281 304.877 14.5964 304.738 14.2647 304.391C13.9993 304.113 13.6675 303.627 13.3357 303.002L9.88548 296.892H6.56795V302.447C6.56795 303.141 6.36888 303.697 6.03713 304.113L6.10349 304.252ZM6.56795 286.13V293.212H10.748C11.8096 293.212 12.6722 292.935 13.2694 292.24C13.8665 291.615 14.1319 290.782 14.1319 289.671C14.1319 288.56 13.8002 287.658 13.0703 287.033C12.3405 286.408 11.4116 286.13 10.2173 286.13H6.63431H6.56795Z" fill="#12100B"/>
<path d="M35.8295 304.877H27.0049C25.6115 304.877 24.948 304.113 24.948 302.585V284.602C24.948 283.075 25.6115 282.311 27.0049 282.311H35.6968C36.2276 282.311 36.6257 282.52 36.9575 282.867C37.2892 283.214 37.4883 283.7 37.4883 284.325C37.4883 284.95 37.3556 285.366 37.0238 285.713C36.6921 286.061 36.294 286.269 35.7631 286.269H28.929V291.685H34.9006C35.4314 291.685 35.8295 291.893 36.1612 292.24C36.493 292.587 36.6921 293.073 36.6921 293.698C36.6921 294.323 36.5594 294.74 36.2276 295.087C35.8958 295.434 35.4977 295.642 34.9669 295.642H28.929V301.058H35.7631C36.294 301.058 36.6921 301.197 37.0238 301.613C37.3556 301.961 37.5546 302.447 37.5546 303.071C37.5546 303.696 37.4219 304.113 37.0901 304.46C36.7584 304.807 36.3603 304.946 35.8295 304.946V304.877Z" fill="#12100B"/>
<path d="M60.5103 302.03C60.7757 302.794 60.7094 303.419 60.3776 304.043C60.0458 304.599 59.4487 304.877 58.7188 304.877C58.188 304.877 57.7899 304.738 57.5245 304.391C57.2591 304.113 56.9937 303.557 56.7947 302.863L55.7331 299.669C55.7331 299.669 55.534 299.669 55.4013 299.669H47.9037L46.842 302.794C46.643 303.488 46.3776 303.974 46.1122 304.321C45.8468 304.599 45.4487 304.807 44.9179 304.807C44.1217 304.807 43.5909 304.529 43.2591 303.974C42.9273 303.419 42.861 302.724 43.1264 301.96L48.2354 286.824C48.8326 285.089 49.3634 283.908 49.8279 283.283C50.2923 282.658 50.9558 282.311 51.8847 282.311C52.8136 282.311 53.4771 282.658 53.9416 283.283C54.406 283.908 54.8705 285.158 55.4677 286.963L60.5766 302.03H60.5103ZM49.098 295.85H54.3397L51.752 288.005L49.1643 295.85H49.098Z" fill="#12100B"/>
<path d="M77.4303 304.877H69.1364C67.7431 304.877 67.0796 304.113 67.0796 302.585V284.533C67.0796 283.978 67.2786 283.422 67.6767 283.006C68.0748 282.589 68.5393 282.311 69.0701 282.311C69.6009 282.311 70.0653 282.52 70.4634 282.936C70.8615 283.353 71.0606 283.908 71.0606 284.464V300.919H77.3639C77.8947 300.919 78.2928 301.058 78.6246 301.474C78.9564 301.822 79.1554 302.308 79.1554 302.933C79.1554 303.557 79.0227 303.974 78.691 304.321C78.3592 304.668 77.9611 304.807 77.4303 304.807V304.877Z" fill="#12100B"/>
<path d="M88.7761 304.252C88.4443 304.669 87.9135 304.946 87.3164 304.946C86.7192 304.946 86.1884 304.738 85.7903 304.252C85.3922 303.766 85.2595 303.21 85.2595 302.586V284.742C85.2595 284.047 85.4586 283.492 85.7903 283.075C86.1221 282.659 86.6529 282.381 87.3164 282.381C87.9799 282.381 88.4443 282.589 88.7761 283.075C89.1079 283.492 89.3069 284.117 89.3069 284.742V302.586C89.3069 303.28 89.1079 303.835 88.7761 304.252Z" fill="#12100B"/>
<path d="M111.469 304.877H97.8004C97.2696 304.877 96.7387 304.669 96.3406 304.252C95.9425 303.835 95.7434 303.28 95.7434 302.655C95.7434 302.1 95.8762 301.613 96.2079 301.197L107.488 286.269H98.0657C97.5349 286.269 97.0704 286.13 96.6723 285.783C96.2742 285.436 96.1416 284.95 96.1416 284.325C96.1416 283.7 96.3406 283.214 96.6723 282.867C97.0704 282.52 97.4686 282.381 98.0657 282.381H111.004C111.601 282.381 112.066 282.589 112.464 283.006C112.862 283.422 113.061 283.978 113.061 284.603C113.061 285.089 112.862 285.575 112.53 286.061L101.251 300.989H111.469C111.999 300.989 112.464 301.127 112.862 301.475C113.26 301.822 113.393 302.308 113.393 302.933C113.393 303.558 113.194 304.044 112.862 304.391C112.464 304.738 111.999 304.877 111.469 304.877Z" fill="#12100B"/>
<path d="M135.819 302.03C136.084 302.794 136.018 303.419 135.686 304.043C135.354 304.599 134.757 304.877 134.027 304.877C133.497 304.877 133.099 304.738 132.833 304.391C132.568 304.113 132.302 303.557 132.103 302.863L131.042 299.669C131.042 299.669 130.843 299.669 130.71 299.669H123.212L122.151 302.794C121.952 303.488 121.686 303.974 121.421 304.321C121.155 304.599 120.757 304.807 120.226 304.807C119.43 304.807 118.899 304.529 118.568 303.974C118.236 303.419 118.17 302.724 118.435 301.96L123.544 286.824C124.141 285.089 124.672 283.908 125.136 283.283C125.601 282.658 126.264 282.311 127.193 282.311C128.122 282.311 128.786 282.658 129.25 283.283C129.715 283.908 130.179 285.158 130.776 286.963L135.885 302.03H135.819ZM124.473 295.85H129.715L127.127 288.005L124.539 295.85H124.473Z" fill="#12100B"/>
<path d="M155.261 300.363C155.725 300.363 156.123 300.572 156.389 300.919C156.654 301.266 156.787 301.683 156.787 302.169C156.787 303.002 156.389 303.696 155.592 304.182C154.73 304.738 153.536 305.085 151.943 305.154L151.81 305.71C151.81 305.71 152.009 305.71 152.076 305.779C152.209 305.779 152.408 305.918 152.739 306.057C153.071 306.196 153.336 306.404 153.602 306.612C153.867 306.821 154.066 307.168 154.265 307.654C154.464 308.14 154.531 308.626 154.531 309.251C154.531 310.292 154.199 311.125 153.469 311.889C152.739 312.653 151.744 313 150.417 313C149.621 313 148.957 312.861 148.427 312.514C147.763 312.097 147.431 311.611 147.431 310.917C147.431 310.431 147.564 310.015 147.829 309.737C148.095 309.459 148.427 309.32 148.758 309.32C148.957 309.32 149.156 309.32 149.488 309.528C149.754 309.667 150.019 309.737 150.152 309.737C150.815 309.737 151.147 309.39 151.147 308.695C151.147 308.001 150.682 307.654 149.82 307.654C149.555 307.654 149.289 307.654 149.156 307.584C149.024 307.584 148.891 307.376 148.758 307.168C148.626 306.959 148.626 306.612 148.758 306.196L149.024 305.085V304.807C146.569 304.252 144.578 302.932 143.118 300.849C141.659 298.836 140.863 296.406 140.863 293.559C140.863 290.088 141.858 287.31 143.782 285.227C145.706 283.144 148.36 282.033 151.744 282.033C153.336 282.033 154.663 282.381 155.659 283.005C156.389 283.492 156.72 284.116 156.72 284.811C156.72 285.436 156.588 285.922 156.256 286.269C155.924 286.616 155.526 286.824 154.995 286.824C154.73 286.824 154.199 286.755 153.469 286.546C152.739 286.338 152.142 286.269 151.611 286.269C149.621 286.269 147.962 286.894 146.768 288.213C145.507 289.532 144.91 291.337 144.91 293.629C144.91 295.92 145.507 297.725 146.834 299.044C148.095 300.363 149.687 300.988 151.611 300.988C152.275 300.988 152.938 300.85 153.668 300.641C154.332 300.433 154.863 300.294 155.194 300.294L155.261 300.363Z" fill="#12100B"/>
<path d="M172.046 305.154C168.861 305.154 166.34 304.043 164.482 301.891C162.624 299.739 161.696 296.961 161.696 293.698C161.696 290.435 162.624 287.588 164.482 285.436C166.34 283.283 168.861 282.172 172.046 282.172C175.231 282.172 177.752 283.283 179.61 285.436C181.468 287.588 182.397 290.365 182.397 293.698C182.397 297.031 181.468 299.739 179.61 301.891C177.752 304.113 175.231 305.154 171.98 305.154H172.046ZM172.046 301.197C174.037 301.197 175.629 300.502 176.691 299.183C177.752 297.794 178.35 295.989 178.35 293.629C178.35 291.268 177.819 289.463 176.691 288.074C175.563 286.685 174.037 286.06 172.046 286.06C170.056 286.06 168.53 286.755 167.468 288.143C166.34 289.532 165.809 291.337 165.809 293.698C165.809 296.059 166.34 297.864 167.468 299.183C168.596 300.572 170.122 301.197 172.046 301.197ZM169.658 274.882C170.454 274.882 171.117 275.021 171.781 275.298C172.378 275.576 172.909 275.854 173.373 276.132C173.771 276.409 174.103 276.548 174.302 276.548C174.501 276.548 174.634 276.548 174.767 276.409C174.899 276.34 174.966 276.132 175.098 275.854C175.231 275.576 175.297 275.437 175.364 275.368C175.629 274.951 176.027 274.812 176.558 274.812C177.089 274.812 177.487 275.021 177.752 275.437C178.018 275.854 178.151 276.34 178.151 276.965C178.151 277.867 177.885 278.701 177.288 279.395C176.691 280.159 175.961 280.506 174.966 280.506C174.103 280.506 173.174 280.159 172.179 279.534C171.184 278.909 170.454 278.562 170.188 278.562C169.989 278.562 169.857 278.562 169.724 278.562C169.591 278.562 169.459 278.701 169.392 278.77C169.326 278.909 169.26 278.978 169.193 278.978C169.193 278.978 169.127 279.117 168.994 279.326C168.928 279.534 168.861 279.603 168.861 279.603C168.662 280.159 168.264 280.436 167.667 280.436C167.136 280.436 166.738 280.228 166.473 279.881C166.207 279.534 166.075 279.048 166.075 278.492C166.075 277.451 166.406 276.548 167.07 275.785C167.733 275.021 168.596 274.674 169.724 274.674L169.658 274.882Z" fill="#12100B"/>
<path d="M200.245 304.877H191.42C190.027 304.877 189.364 304.113 189.364 302.585V284.602C189.364 283.075 190.027 282.311 191.42 282.311H200.112C200.643 282.311 201.041 282.52 201.373 282.867C201.705 283.214 201.904 283.7 201.904 284.325C201.904 284.95 201.771 285.366 201.439 285.713C201.108 286.061 200.71 286.269 200.179 286.269H193.345V291.685H199.316C199.847 291.685 200.245 291.893 200.577 292.24C200.909 292.587 201.108 293.073 201.108 293.698C201.108 294.323 200.975 294.74 200.643 295.087C200.311 295.434 199.913 295.642 199.383 295.642H193.345V301.058H200.179C200.71 301.058 201.108 301.197 201.439 301.613C201.771 301.961 201.97 302.447 201.97 303.071C201.97 303.696 201.837 304.113 201.506 304.46C201.174 304.807 200.776 304.946 200.245 304.946V304.877Z" fill="#12100B"/>
<path d="M223.004 298.142C223.004 300.294 222.274 302.03 220.814 303.28C219.354 304.529 217.497 305.154 215.241 305.154C214.245 305.154 213.117 305.015 212.056 304.738C210.994 304.46 209.999 304.113 209.269 303.557C208.274 302.932 207.809 302.169 207.809 301.266C207.809 300.641 208.008 300.155 208.34 299.808C208.672 299.461 209.136 299.322 209.734 299.322C210.065 299.322 210.795 299.6 211.923 300.155C213.051 300.711 214.113 300.988 215.174 300.988C216.369 300.988 217.231 300.711 217.762 300.225C218.293 299.739 218.558 299.114 218.558 298.419C218.558 298.142 218.558 297.933 218.425 297.656C218.359 297.447 218.16 297.239 217.961 297.031C217.762 296.822 217.497 296.684 217.364 296.545C217.165 296.406 216.899 296.267 216.501 296.059C216.103 295.85 215.772 295.781 215.572 295.642C215.373 295.573 214.975 295.434 214.444 295.225C213.914 295.017 213.582 294.878 213.383 294.878C211.525 294.184 210.132 293.351 209.269 292.379C208.406 291.407 207.942 290.018 207.942 288.282C207.942 286.408 208.606 284.95 209.999 283.769C211.326 282.589 213.25 282.033 215.771 282.033C218.293 282.033 220.018 282.519 221.279 283.422C222.008 283.978 222.34 284.602 222.34 285.436C222.34 285.991 222.141 286.477 221.809 286.824C221.478 287.171 221.013 287.31 220.416 287.31C220.018 287.31 219.288 287.102 218.293 286.616C217.297 286.13 216.369 285.922 215.506 285.922C214.511 285.922 213.781 286.13 213.184 286.546C212.587 286.963 212.388 287.519 212.388 288.143C212.388 288.699 212.587 289.185 213.051 289.532C213.516 289.879 214.113 290.226 214.975 290.574H215.042C217.696 291.476 219.487 292.24 220.35 292.865C221.876 293.906 222.738 295.434 222.805 297.447V297.933L223.004 298.142Z" fill="#12100B"/>
<path d="M217.166 241.415L149.289 198.714C182.796 191.354 205.156 169.067 216.171 141.849C221.412 128.935 224 114.979 224 101.023C224 86.9982 221.346 72.973 216.038 60.0586C202.237 26.3842 171.052 0 122.417 0H12.5403C5.57346 0 0 5.90171 0 13.1226C0 20.3436 5.63981 26.2453 12.5403 26.2453H122.417C159.441 26.2453 182.863 45.6168 192.948 70.2651C196.929 79.9856 198.919 90.4698 198.919 100.954C198.919 111.508 196.995 121.992 193.081 131.643C183.194 155.944 160.37 174.969 124.673 174.969H108.218C101.251 174.969 95.6777 180.87 95.6777 188.091C95.6777 193.229 98.5308 197.742 102.645 199.895L204.36 263.841C210.265 267.521 217.962 265.508 221.545 259.328C225.062 253.149 223.138 245.095 217.232 241.345L217.166 241.415Z" fill="#312D83"/>
<path d="M123.744 239.401H25.7442L25.2134 112.827H123.744C130.711 112.827 136.284 106.925 136.284 99.7039C136.284 92.483 130.645 86.5813 123.744 86.5813H12.6731C5.70627 86.5813 0.132812 92.483 0.132812 99.7039C0.132812 100.121 0.132812 100.537 0.132812 100.954L0.79631 252.662C0.79631 259.883 6.43617 265.716 13.3366 265.716H123.744C130.711 265.716 136.284 259.814 136.284 252.593C136.284 245.372 130.645 239.47 123.744 239.47V239.401Z" fill="#312D83"/>
<path d="M12.5403 42.4236C5.57346 42.4236 0 48.3253 0 55.5462C0 62.7671 5.63981 68.6688 12.5403 68.6688H122.417C138.607 68.6688 148.891 76.7924 153.204 87.3461C154.929 91.512 155.791 96.025 155.791 100.538C155.791 105.051 154.929 109.564 153.27 113.661C148.957 124.006 138.739 132.13 122.417 132.13H61.7725C54.8057 132.13 49.2322 138.031 49.2322 145.252V213.296C49.2322 220.586 54.872 226.418 61.7725 226.418C68.673 226.418 74.3128 220.517 74.3128 213.296V158.375H122.417C150.284 158.375 168.265 143.308 176.228 124.006C179.346 116.577 180.872 108.523 180.806 100.469C180.806 92.4146 179.213 84.3605 176.161 76.9313C168.133 57.5598 150.085 42.4236 122.417 42.4236H12.5403Z" fill="#312D83"/>
</svg>
