<svg width="185" height="232" viewBox="0 0 185 232" fill="none" xmlns="http://www.w3.org/2000/svg">
<path d="M178.315 182.519L122.588 150.256C150.089 144.727 168.405 127.817 177.48 107.257C181.766 97.4866 183.882 86.9112 183.882 76.3895C183.882 65.7605 181.711 55.1851 177.368 45.415C166.067 19.916 140.458 0 100.542 0H10.2992C4.62071 0 0 4.45561 0 9.93118C0 15.4067 4.62071 19.8623 10.2992 19.8623H100.486C130.883 19.8623 150.089 34.5176 158.384 53.1989C161.669 60.5533 163.283 68.4983 163.283 76.3895C163.283 84.3345 161.669 92.2794 158.496 99.5802C150.423 117.993 131.662 132.326 102.324 132.326H88.7955C83.117 132.326 78.4963 136.782 78.4963 142.257C78.4963 146.176 80.8345 149.558 84.2304 151.169L167.681 199.536C172.525 202.328 178.871 200.824 181.766 196.1C184.661 191.43 183.102 185.31 178.203 182.519H178.315Z" fill="#D52124"/>
<path d="M101.6 180.962H21.2109L20.7656 85.247H101.6C107.279 85.247 111.899 80.7914 111.899 75.3158C111.899 69.8402 107.279 65.3846 101.6 65.3846H10.4664C4.78794 65.3846 0.167236 69.8402 0.167236 75.3158C0.167236 75.6379 0.167236 75.96 0.167236 76.2284L0.668272 190.947C0.668272 196.422 5.28898 200.824 10.9118 200.824H101.544C107.223 200.824 111.844 196.369 111.844 190.893C111.844 185.418 107.223 180.962 101.544 180.962H101.6Z" fill="#D52124"/>
<path d="M10.2992 32.0481C4.62071 32.0481 0 36.5037 0 41.9793C0 47.4548 4.62071 51.9104 10.2992 51.9104H100.486C113.792 51.9104 122.198 58.0839 125.761 66.0288C127.153 69.1424 127.877 72.578 127.877 75.96C127.877 79.3956 127.209 82.7776 125.761 85.8912C122.254 93.7288 113.847 99.8485 100.431 99.8485H50.6607C44.9823 99.8485 40.3616 104.304 40.3616 109.78V161.261C40.3616 166.736 44.9823 171.192 50.6607 171.192C56.3392 171.192 60.9599 166.736 60.9599 161.261V119.711H100.431C123.312 119.711 138.064 108.277 144.578 93.7288C147.139 88.0921 148.364 82.0261 148.364 75.96C148.364 69.8939 147.083 63.7742 144.522 58.1376C137.953 43.4824 123.145 32.0481 100.375 32.0481H10.1878H10.2992Z" fill="#D52124"/>
<path d="M10.496 231.645H3.39533C2.27712 231.645 1.71802 231.087 1.71802 230.073V217.5C1.71802 216.435 2.27712 215.928 3.39533 215.928H10.3842C10.7755 215.928 11.111 216.029 11.3905 216.283C11.6701 216.536 11.7819 216.891 11.7819 217.297C11.7819 217.703 11.6701 218.057 11.3905 218.26C11.111 218.463 10.7755 218.615 10.3842 218.615H4.84901V222.367H9.65732C10.0487 222.367 10.3842 222.468 10.6637 222.722C10.9433 222.975 11.0551 223.33 11.0551 223.736C11.0551 224.141 10.9433 224.496 10.6637 224.699C10.3842 224.902 10.0487 225.054 9.65732 225.054H4.7931V228.806H10.3282C10.7196 228.806 11.0551 228.907 11.3346 229.161C11.6142 229.414 11.726 229.769 11.726 230.175C11.726 230.58 11.6142 230.935 11.3346 231.138C11.0551 231.391 10.7196 231.493 10.3282 231.493L10.496 231.645Z" fill="#12100B"/>
<path d="M21.6222 231.189C21.3426 231.493 20.9513 231.645 20.4481 231.645C19.9449 231.645 19.4976 231.493 19.218 231.189C18.9385 230.884 18.8267 230.479 18.8267 230.023V217.855C18.8267 217.246 18.9944 216.739 19.2739 216.435C19.5535 216.131 19.9449 215.928 20.3922 215.928C20.8953 215.928 21.3426 216.08 21.734 216.334C22.0695 216.638 22.5727 217.196 23.1877 218.057L29.6174 226.727V217.55C29.5615 217.094 29.6733 216.689 29.9529 216.384C30.2324 216.08 30.6238 215.928 31.127 215.928C31.6302 215.928 32.0775 216.08 32.3011 216.384C32.5807 216.689 32.6925 217.094 32.6925 217.55V229.718C32.6925 230.327 32.5248 230.834 32.2452 231.138C31.9656 231.442 31.5743 231.645 31.0152 231.645C30.4561 231.645 30.0088 231.442 29.5615 231.036C29.1142 230.631 28.3874 229.82 27.4928 228.603L21.9017 221.049V230.023C21.9577 230.479 21.8458 230.884 21.5663 231.189H21.6222Z" fill="#12100B"/>
<path d="M48.3473 231.848C45.7195 231.848 43.6508 231.138 42.0294 229.668C40.408 228.198 39.6252 226.271 39.6252 223.787C39.6252 221.302 40.408 219.325 41.9735 217.906C43.539 216.486 45.7195 215.776 48.4591 215.776C50.2483 215.776 51.5901 215.979 52.4288 216.435C53.0438 216.74 53.3793 217.196 53.3793 217.754C53.3793 218.159 53.2674 218.514 52.9879 218.767C52.7083 219.021 52.3729 219.122 51.9815 219.122C51.8138 219.122 51.4224 219.021 50.6955 218.92C50.0246 218.767 49.3537 218.717 48.6269 218.717C46.9495 218.717 45.5518 219.173 44.4895 220.086C43.4272 220.998 42.8681 222.266 42.8681 223.888C42.8681 225.511 43.3713 226.778 44.3776 227.691C45.384 228.603 46.7259 229.059 48.4032 229.059C49.0741 229.059 49.6892 228.958 50.1924 228.806V224.75C50.1924 224.294 50.3042 223.888 50.5837 223.584C50.8633 223.28 51.2546 223.128 51.8138 223.128C52.3729 223.128 52.7083 223.28 52.9879 223.584C53.2674 223.888 53.3793 224.294 53.3793 224.75V229.516C53.3793 230.428 52.932 231.087 51.9815 231.442C51.031 231.797 49.801 232 48.1796 232L48.3473 231.848Z" fill="#12100B"/>
<path d="M69.4257 231.645H62.325C61.2068 231.645 60.6477 231.087 60.6477 230.073V217.5C60.6477 216.435 61.2068 215.928 62.325 215.928H69.3139C69.7052 215.928 70.0407 216.029 70.3202 216.283C70.5998 216.536 70.7116 216.891 70.7116 217.297C70.7116 217.703 70.5998 218.057 70.3202 218.26C70.0407 218.463 69.7052 218.615 69.3139 218.615H63.7787V222.367H68.587C68.9784 222.367 69.3138 222.468 69.5934 222.722C69.873 222.975 69.9848 223.33 69.9848 223.736C69.9848 224.141 69.873 224.496 69.5934 224.699C69.3138 224.902 68.9784 225.054 68.587 225.054H63.7228V228.806H69.2579C69.6493 228.806 69.9848 228.907 70.2643 229.161C70.5439 229.414 70.6557 229.769 70.6557 230.175C70.6557 230.58 70.5439 230.935 70.2643 231.138C69.9848 231.391 69.6493 231.493 69.2579 231.493L69.4257 231.645Z" fill="#12100B"/>
<path d="M80.4962 231.189C80.2167 231.493 79.8253 231.645 79.3221 231.645C78.8189 231.645 78.3716 231.493 78.0921 231.189C77.8125 230.884 77.7007 230.479 77.7007 230.023V217.855C77.7007 217.246 77.8684 216.739 78.148 216.435C78.4275 216.131 78.8189 215.928 79.2662 215.928C79.7694 215.928 80.2167 216.08 80.608 216.334C80.9435 216.638 81.4467 217.196 82.0617 218.057L88.4914 226.727V217.55C88.4355 217.094 88.5473 216.689 88.8269 216.384C89.1064 216.08 89.4978 215.928 90.001 215.928C90.5042 215.928 90.9515 216.08 91.1751 216.384C91.4547 216.689 91.5665 217.094 91.5665 217.55V229.718C91.5665 230.327 91.3988 230.834 91.1192 231.138C90.8397 231.442 90.4483 231.645 89.8892 231.645C89.3301 231.645 88.8828 231.442 88.4355 231.036C87.9882 230.631 87.2614 229.82 86.3668 228.603L80.7758 221.049V230.023C80.8317 230.479 80.7199 230.884 80.4403 231.189H80.4962Z" fill="#12100B"/>
<path d="M102.245 231.189C101.966 231.493 101.574 231.645 101.071 231.645C100.568 231.645 100.121 231.493 99.8411 231.189C99.5615 230.884 99.4497 230.479 99.4497 230.023V217.55C99.4497 217.094 99.5615 216.689 99.8411 216.384C100.121 216.08 100.512 215.928 101.071 215.928C101.63 215.928 102.022 216.08 102.245 216.384C102.525 216.689 102.637 217.094 102.637 217.55V222.418H110.352V217.55C110.352 217.094 110.52 216.689 110.8 216.384C111.079 216.08 111.47 215.928 112.03 215.928C112.589 215.928 112.98 216.08 113.204 216.384C113.483 216.689 113.595 217.094 113.595 217.55V230.023C113.595 230.479 113.483 230.884 113.204 231.189C112.924 231.493 112.533 231.645 112.03 231.645C111.526 231.645 111.079 231.493 110.8 231.189C110.52 230.884 110.408 230.479 110.408 230.023V225.155H102.693V230.023C102.693 230.479 102.581 230.884 102.301 231.189H102.245Z" fill="#12100B"/>
<path d="M134.282 229.668C134.506 230.175 134.45 230.631 134.17 231.036C133.891 231.442 133.443 231.645 132.828 231.645C132.381 231.645 132.102 231.544 131.878 231.341C131.654 231.138 131.487 230.783 131.263 230.276L130.424 228.045C130.424 228.045 130.257 228.045 130.145 228.045H124.106L123.268 230.276C123.1 230.783 122.876 231.087 122.653 231.341C122.429 231.544 122.094 231.645 121.702 231.645C121.087 231.645 120.64 231.442 120.36 231.036C120.081 230.631 120.025 230.175 120.249 229.668L124.386 219.071C124.833 217.855 125.281 217.043 125.616 216.587C126.007 216.131 126.566 215.928 127.293 215.928C128.02 215.928 128.579 216.131 128.971 216.587C129.306 217.043 129.753 217.855 130.201 219.122L134.338 229.668H134.282ZM125.113 225.358H129.362L127.293 219.883L125.225 225.358H125.113Z" fill="#12100B"/>
<path d="M143.675 231.189C143.396 231.493 143.004 231.645 142.501 231.645C141.998 231.645 141.551 231.493 141.271 231.189C140.991 230.884 140.88 230.479 140.88 230.023V217.5C140.88 216.435 141.439 215.928 142.557 215.928H146.862C148.875 215.928 150.44 216.334 151.559 217.196C152.677 218.057 153.292 219.325 153.292 221.049C153.292 222.215 153.012 223.229 152.453 223.989C151.894 224.75 151.167 225.358 150.273 225.713L152.397 228.958C152.733 229.414 152.844 229.87 152.844 230.276C152.844 230.682 152.677 230.986 152.341 231.29C152.006 231.543 151.559 231.696 151.111 231.696C150.776 231.696 150.496 231.594 150.273 231.391C150.049 231.189 149.769 230.834 149.546 230.428L146.75 226.169H144.122V230.073C144.122 230.53 144.011 230.935 143.731 231.239L143.675 231.189ZM144.067 218.514V223.432H147.421C148.316 223.432 148.987 223.229 149.434 222.773C149.881 222.316 150.161 221.708 150.161 220.998C150.161 220.288 149.881 219.629 149.266 219.173C148.707 218.767 147.924 218.514 146.974 218.514H144.067Z" fill="#12100B"/>
<path d="M163.02 231.189C162.74 231.493 162.349 231.645 161.846 231.645C161.343 231.645 160.895 231.493 160.616 231.189C160.336 230.884 160.224 230.479 160.224 230.023V217.55C160.224 217.094 160.336 216.689 160.616 216.384C160.895 216.08 161.287 215.928 161.846 215.928C162.405 215.928 162.796 216.08 163.02 216.384C163.299 216.689 163.411 217.094 163.411 217.55V230.023C163.411 230.479 163.299 230.884 163.02 231.189Z" fill="#12100B"/>
<path d="M184.099 229.668C184.322 230.175 184.266 230.631 183.987 231.036C183.707 231.442 183.26 231.645 182.645 231.645C182.198 231.645 181.918 231.544 181.694 231.341C181.471 231.138 181.303 230.783 181.079 230.276L180.241 228.045C180.241 228.045 180.073 228.045 179.961 228.045H173.923L173.084 230.276C172.916 230.783 172.693 231.087 172.469 231.341C172.246 231.544 171.91 231.645 171.519 231.645C170.904 231.645 170.456 231.442 170.177 231.036C169.897 230.631 169.841 230.175 170.065 229.668L174.202 219.071C174.65 217.855 175.097 217.043 175.432 216.587C175.824 216.131 176.383 215.928 177.11 215.928C177.837 215.928 178.396 216.131 178.787 216.587C179.123 217.043 179.57 217.855 180.017 219.122L184.154 229.668H184.099ZM174.929 225.358H179.178L177.11 219.883L175.041 225.358H174.929Z" fill="#12100B"/>
</svg>
