<svg width="227" height="307" viewBox="0 0 227 307" fill="none" xmlns="http://www.w3.org/2000/svg">
<path d="M5.98254 306.231C5.64645 306.65 5.10871 306.93 4.50373 306.93C3.89876 306.93 3.36101 306.72 2.95769 306.231C2.62159 305.812 2.41992 305.183 2.41992 304.553V286.519C2.41992 284.982 3.09213 284.213 4.50373 284.213H9.88128C12.3684 284.213 14.385 284.842 15.7966 286.03C17.2082 287.218 17.9476 289.106 17.9476 291.552C17.9476 293.23 17.6115 294.698 16.9393 295.816C16.2671 296.934 15.326 297.773 14.2505 298.263L16.9393 302.946C17.3426 303.645 17.5443 304.274 17.5443 304.833C17.5443 305.392 17.3426 305.882 16.8721 306.301C16.4015 306.65 15.931 306.86 15.3261 306.86C14.9227 306.86 14.5866 306.72 14.2505 306.371C13.9817 306.091 13.6456 305.602 13.3095 304.973L9.81405 298.822H6.45308V304.414C6.45308 305.113 6.31865 305.672 5.91534 306.091L5.98254 306.231ZM6.52031 288.057V295.187H10.7551C11.8307 295.187 12.7045 294.907 13.3095 294.208C13.9144 293.509 14.1833 292.74 14.1833 291.622C14.1833 290.504 13.78 289.595 13.0406 288.966C12.3012 288.337 11.3601 288.057 10.1502 288.057H6.52031Z" fill="#12100B"/>
<path d="M48.1963 306.93H39.2561C37.8445 306.93 37.1724 306.161 37.1724 304.623V286.519C37.1724 284.982 37.8445 284.213 39.2561 284.213H48.0619C48.5996 284.213 49.003 284.422 49.3391 284.772C49.6752 285.121 49.8768 285.611 49.8768 286.24C49.8768 286.869 49.7424 287.288 49.4063 287.638C49.0702 287.987 48.6669 288.197 48.1291 288.197H41.2055V293.649H47.3225C47.8602 293.649 48.2635 293.859 48.5996 294.208C48.9357 294.558 49.1374 295.047 49.1374 295.676C49.1374 296.305 49.003 296.725 48.6669 297.074C48.3308 297.424 47.9274 297.633 47.3897 297.633H41.2728V303.086H48.1963C48.7341 303.086 49.1374 303.225 49.4735 303.645C49.8096 303.994 50.0112 304.484 50.0112 305.113C50.0112 305.742 49.8768 306.161 49.5407 306.511C49.2046 306.86 48.8013 307 48.2636 307L48.1963 306.93Z" fill="#12100B"/>
<path d="M72.5297 306.231C72.1936 306.651 71.6559 306.93 71.0509 306.93C70.4459 306.93 69.9081 306.721 69.5048 306.231C69.1687 305.812 68.967 305.183 68.967 304.554V287.009C68.967 286.1 69.1687 285.401 69.5048 284.982C69.8409 284.492 70.3114 284.283 70.9164 284.283C71.5886 284.283 72.1264 284.492 72.5969 284.912C73.0674 285.331 73.6724 286.1 74.479 287.358L82.5454 299.87V286.659C82.4782 285.96 82.6126 285.401 82.9487 284.982C83.2848 284.562 83.8226 284.283 84.4948 284.283C85.167 284.283 85.6375 284.492 85.9735 284.982C86.3096 285.471 86.5113 286.03 86.5113 286.659V304.204C86.5113 305.113 86.3096 305.812 85.9735 306.231C85.6375 306.721 85.0997 306.93 84.4275 306.93C83.7553 306.93 83.1503 306.651 82.6126 306.091C82.0748 305.532 81.201 304.344 80.0583 302.596L73.0002 291.692V304.623C73.0675 305.322 72.933 305.882 72.5969 306.301L72.5297 306.231Z" fill="#12100B"/>
<path d="M115.08 306.231C114.744 306.651 114.273 306.93 113.601 306.93C112.929 306.93 112.458 306.721 112.055 306.231C111.719 305.812 111.517 305.183 111.517 304.554V288.197H106.408C105.938 288.197 105.535 287.987 105.131 287.638C104.728 287.288 104.594 286.799 104.594 286.24C104.594 285.681 104.795 285.191 105.131 284.842C105.467 284.422 105.938 284.283 106.408 284.283H120.592C121.062 284.283 121.533 284.492 121.869 284.842C122.205 285.261 122.407 285.681 122.407 286.24C122.407 286.799 122.205 287.218 121.869 287.638C121.533 287.987 121.129 288.197 120.592 288.197H115.55V304.554C115.55 305.253 115.349 305.812 115.013 306.231H115.08Z" fill="#12100B"/>
<path d="M144.119 306.231C143.782 306.65 143.245 306.93 142.64 306.93C142.035 306.93 141.497 306.72 141.094 306.231C140.758 305.812 140.556 305.183 140.556 304.553V286.589C140.556 285.89 140.69 285.331 141.094 284.912C141.43 284.492 141.967 284.213 142.64 284.213C143.312 284.213 143.782 284.422 144.119 284.912C144.455 285.401 144.656 285.96 144.656 286.589V293.579H154.336V286.589C154.336 285.89 154.538 285.331 154.874 284.912C155.21 284.492 155.748 284.213 156.42 284.213C157.092 284.213 157.562 284.422 157.899 284.912C158.235 285.401 158.436 285.96 158.436 286.589V304.553C158.436 305.252 158.302 305.812 157.899 306.231C157.495 306.65 157.025 306.93 156.42 306.93C155.815 306.93 155.277 306.72 154.874 306.231C154.47 305.742 154.336 305.183 154.336 304.553V297.564H144.656V304.553C144.656 305.252 144.522 305.812 144.119 306.231Z" fill="#12100B"/>
<path d="M194.802 304.064C195.071 304.833 195.004 305.462 194.668 306.091C194.264 306.65 193.726 306.93 192.987 306.93C192.449 306.93 192.046 306.79 191.777 306.441C191.508 306.161 191.239 305.602 191.038 304.903L189.962 301.688C189.962 301.688 189.761 301.688 189.626 301.688H182.03L181.022 304.833C180.82 305.532 180.551 306.021 180.283 306.371C180.014 306.65 179.61 306.86 179.073 306.86C178.266 306.86 177.728 306.581 177.392 306.021C176.989 305.462 176.989 304.763 177.258 303.994L182.434 288.756C183.039 287.009 183.576 285.82 184.047 285.191C184.517 284.562 185.19 284.213 186.131 284.213C187.072 284.213 187.744 284.562 188.214 285.191C188.618 285.82 189.156 287.079 189.761 288.896L194.936 304.064H194.802ZM183.307 297.843H188.618L185.996 289.944L183.375 297.843H183.307Z" fill="#12100B"/>
<path d="M224.042 306.93H215.639C214.228 306.93 213.556 306.161 213.556 304.623V286.449C213.556 285.89 213.757 285.331 214.161 284.912C214.564 284.492 215.035 284.213 215.572 284.213C216.11 284.213 216.581 284.422 216.984 284.842C217.387 285.261 217.589 285.82 217.589 286.38V302.946H223.975C224.512 302.946 224.916 303.086 225.252 303.505C225.588 303.854 225.79 304.344 225.79 304.973C225.79 305.602 225.655 306.021 225.319 306.371C224.983 306.72 224.58 306.86 224.042 306.86V306.93Z" fill="#12100B"/>
<path d="M220.076 243.041L151.311 200.053C185.257 192.644 207.91 170.206 219.068 142.805C224.378 129.804 227 115.754 227 101.704C227 87.5843 224.311 73.4646 218.934 60.4633C204.952 26.5619 173.359 0 124.087 0H12.7045C5.64643 0 0 5.94147 0 13.211C0 20.4806 5.71365 26.4221 12.7045 26.4221H124.087C161.596 26.4221 185.324 45.9241 195.541 70.7385C199.574 80.5245 201.591 91.0793 201.591 101.634C201.591 112.259 199.642 122.814 195.676 132.53C185.66 156.995 162.537 176.147 126.305 176.147H109.635C102.577 176.147 96.9304 182.089 96.9304 189.358C96.9304 194.531 99.8208 199.074 103.988 201.241L207.036 265.619C213.018 269.324 220.816 267.297 224.446 261.075C228.008 254.854 226.059 246.746 220.076 242.971V243.041Z" fill="#EC6810"/>
<path d="M125.432 240.944H26.1488L25.6111 113.517H125.432C132.49 113.517 138.136 107.576 138.136 100.306C138.136 93.0364 132.423 87.095 125.432 87.095H12.9066C5.84858 87.095 0.202148 93.0364 0.202148 100.306C0.202148 100.725 0.202148 101.145 0.202148 101.564L0.874332 254.295C0.874332 261.565 6.58798 267.436 13.5788 267.436H125.499C132.557 267.436 138.204 261.495 138.204 254.225C138.204 246.956 132.49 241.014 125.499 241.014L125.432 240.944Z" fill="#EC6810"/>
<path d="M12.7045 42.7087C5.64643 42.7087 0 48.6502 0 55.9198C0 63.1893 5.71365 69.1308 12.7045 69.1308H124.02C140.421 69.1308 150.84 77.3091 155.21 87.9338C156.957 92.1278 157.831 96.6713 157.831 101.215C157.831 105.758 156.957 110.302 155.277 114.426C150.908 124.841 140.556 133.019 124.02 133.019H62.5813C55.5233 133.019 49.8768 138.961 49.8768 146.23V214.732C49.8768 222.071 55.5905 227.943 62.5813 227.943C69.5721 227.943 75.2858 222.001 75.2858 214.732V159.441H124.02C152.252 159.441 170.468 144.273 178.535 124.841C181.694 117.362 183.24 109.253 183.173 101.145C183.173 93.0365 181.56 84.9281 178.468 77.4489C170.334 57.9469 152.05 42.7087 124.02 42.7087H12.7045Z" fill="#EC6810"/>
</svg>
