<svg width="367" height="219" viewBox="0 0 367 219" fill="none" xmlns="http://www.w3.org/2000/svg">
<path d="M324.465 186.968L308.872 134.998H276.881L287.705 101.333H298.744L293.439 83.6552L315.088 16.3736L366.37 187.017H324.519L324.465 186.968ZM253.035 38.4949L255.875 29.6077V29.7043L265.413 0H307.425L260.162 147.024L259.68 148.57C256.25 159.196 248.801 168.856 239.317 175.763C230.529 182.138 219.865 186.292 208.665 187.017H109.584L121.266 150.647H200.895C210.112 150.647 218.847 145.286 222.491 133.79L253.088 38.5432L253.035 38.4949ZM107.601 152.772V152.482L96.4018 186.968H54.015L96.0268 55.4964C96.7234 53.3712 98.2773 51.3909 100.314 49.9419C102.136 48.6379 104.279 47.7685 106.369 47.7685H237.066L212.738 123.213C208.344 136.592 205.932 138.572 190.339 139.296H124.856L136.752 102.299H176.728L182.247 84.6694H134.234C131.715 84.6694 129.25 85.0076 128.071 88.6783L124.588 99.8356L118.265 119.59L108.191 150.599H108.298L107.601 152.772ZM240.71 36.5629H106.423C101.439 36.5629 96.5626 38.35 92.5972 41.1997C88.6854 44.0494 85.5774 48.0099 84.1841 52.4052L41.2079 186.92H0L46.5129 38.6881C49.8889 28.0139 57.3374 18.3056 66.8758 11.3988C76.5749 4.39529 88.5783 0 100.957 0H252.499L240.764 36.5146L240.71 36.5629Z" fill="#D31317"/>
<path d="M295.154 211.457L297.994 204.84L300.78 211.457H295.154ZM288.831 217.687H292.421L294.028 213.968H301.852L303.513 217.687H307.211L299.441 201.41H296.654L288.777 217.687H288.831ZM274.791 217.687H278.006V201.41H274.791V217.687ZM253.196 208.269V203.874H255.982C257.643 203.874 259.626 204.115 259.626 206.047C259.626 208.172 257.482 208.317 255.714 208.317H253.196V208.269ZM249.98 217.687H253.196V210.78H255.553L259.733 217.687H263.591L258.769 210.491C261.448 210.153 262.948 208.414 262.948 206.095C262.948 202.425 259.68 201.41 256.196 201.41H249.927V217.687H249.98ZM226.992 211.457L229.832 204.84L232.618 211.457H226.992ZM220.669 217.687H224.259L225.867 213.968H233.69L235.351 217.687H239.049L231.279 201.41H228.492L220.615 217.687H220.669ZM194.947 217.687H198.162V210.491H206.629V217.687H209.844V201.41H206.629V207.883H198.162V201.41H194.947V217.687ZM165.743 217.687H168.958V205.178L177.907 217.687H181.979V201.41H178.764V213.534L170.03 201.41H165.743V217.687ZM141.307 217.687H153.739V215.079H144.522V210.684H152.828V208.076H144.522V204.067H153.257V201.459H141.307V217.736V217.687ZM128.661 208.172H121.748V210.78H125.446V214.644C124.32 215.224 122.82 215.514 121.212 215.514C117.461 215.514 114.996 212.954 114.996 209.476C114.996 206.24 117.461 203.632 121.212 203.632C123.034 203.632 124.803 204.212 125.928 205.226L128.286 203.053C126.41 201.555 123.945 201.024 121.159 201.024C115.586 201.024 111.62 204.453 111.62 209.67C111.62 214.886 115.586 218.17 121.159 218.17C123.945 218.17 126.464 217.639 128.661 216.576V208.221V208.172ZM83.434 217.687H86.6492V205.178L95.5981 217.687H99.6707V201.41H96.4555V213.534L87.7209 201.41H83.434V217.687ZM58.9986 217.687H71.4306V215.079H62.2138V210.684H70.5197V208.076H62.2138V204.067H70.9484V201.459H58.9451V217.736L58.9986 217.687Z" fill="#403937"/>
</svg>
